<svg width="30" height="28" viewBox="0 0 30 28" fill="none" xmlns="http://www.w3.org/2000/svg">
<g id="cart">
<g id="shopping cart">
<path id="Vector" d="M4.65031 6.51073V6.51961V6.55196L8.15677 19.1981C8.15679 19.1982 8.1568 19.1982 8.15682 19.1983C8.33082 19.816 8.69336 20.3587 9.18998 20.7457C9.68662 21.1328 10.2908 21.3436 10.9125 21.3469H23.6448C24.2664 21.3436 24.8706 21.1328 25.3672 20.7457C25.8639 20.3587 26.2264 19.8159 26.4004 19.1982C26.4004 19.1982 26.4004 19.1981 26.4004 19.1981L29.9091 6.51673C29.9091 6.51665 29.9091 6.51657 29.9091 6.51648C29.9388 6.40432 29.9432 6.28659 29.9219 6.17238C29.9006 6.05809 29.8542 5.95051 29.7865 5.85789L29.7864 5.85771C29.7179 5.76349 29.6293 5.68721 29.5277 5.63475C29.4261 5.58229 29.3142 5.55503 29.2008 5.55503H5.95447H5.90512L5.89198 5.50746L4.76226 1.41741C4.65376 1.0281 4.42601 0.686027 4.11363 0.442292C3.80131 0.198609 3.42118 0.0662923 3.03028 0.0648366H0.797474C0.603851 0.0648366 0.417721 0.144246 0.280152 0.28631C0.142515 0.428444 0.0648366 0.621651 0.0648366 0.823529C0.0648366 1.02541 0.142515 1.21861 0.280152 1.36075C0.417721 1.50281 0.603851 1.58222 0.797474 1.58222H3.0297H3.0304V1.64706C3.08911 1.6457 3.14644 1.66552 3.19253 1.70309C3.23862 1.74067 3.27059 1.79366 3.28294 1.85294L4.65031 6.51073ZM4.65031 6.51073L4.64793 6.50218L3.34594 1.83748L4.65031 6.51073ZM28.2133 7.15461L28.2361 7.07242H28.1508H6.40638H6.32107L6.34391 7.15461L9.57358 18.7797C9.57359 18.7798 9.57361 18.7799 9.57362 18.7799C9.65534 19.0807 9.82994 19.3461 10.0714 19.5357C10.3129 19.7254 10.608 19.8286 10.9119 19.8295H10.9121H23.6451H23.6453C23.9492 19.8286 24.2444 19.7254 24.4859 19.5357C24.7272 19.3462 24.9018 19.0808 24.9835 18.7801C24.9836 18.78 24.9836 18.7798 24.9836 18.7797L28.2133 7.15461ZM12.1631 26.0784C12.1631 26.4461 12.0575 26.8054 11.8599 27.1108C11.6623 27.4162 11.3817 27.6538 11.0538 27.7941C10.7258 27.9344 10.3652 27.971 10.0172 27.8996C9.66922 27.8281 9.34928 27.6516 9.09797 27.3921C8.84665 27.1325 8.67526 26.8016 8.60581 26.441C8.53636 26.0805 8.57202 25.7067 8.70821 25.3672C8.84439 25.0277 9.07487 24.7378 9.3702 24.5341C9.66549 24.3303 10.0124 24.2217 10.3672 24.2217C10.8428 24.2217 11.2994 24.4168 11.6364 24.7648C11.9734 25.1128 12.1631 25.5853 12.1631 26.0784ZM23.1931 24.5341C23.4884 24.3303 23.8353 24.2217 24.19 24.2217C24.6657 24.2217 25.1223 24.4168 25.4592 24.7648C25.7963 25.1128 25.986 25.5853 25.986 26.0784C25.986 26.4461 25.8804 26.8054 25.6828 27.1108C25.4852 27.4162 25.2046 27.6538 24.8766 27.7941C24.5487 27.9344 24.188 27.971 23.8401 27.8996C23.4921 27.8281 23.1722 27.6516 22.9209 27.3921C22.6695 27.1325 22.4981 26.8016 22.4287 26.441C22.3592 26.0805 22.3949 25.7067 22.5311 25.3672C22.6673 25.0277 22.8978 24.7378 23.1931 24.5341Z" fill="#232221" stroke="#FDFDFD" stroke-width="0.129673"/>
</g>
</g>
</svg>
