<svg width="20" height="20" viewBox="0 0 20 20" fill="none" xmlns="http://www.w3.org/2000/svg">
<g id="fluent:search-48-regular" clip-path="url(#clip0_400_3720)">
<path id="Vector" d="M12.178 3.2002C9.42881 3.2002 7.2002 5.42881 7.2002 8.17795C7.2002 10.9271 9.42881 13.1557 12.178 13.1557C13.3449 13.1575 14.475 12.7476 15.3694 11.998L19.2414 15.87C19.2827 15.9113 19.3317 15.944 19.3856 15.9664C19.4395 15.9887 19.4973 16.0002 19.5557 16.0002C19.6141 16.0002 19.6719 15.9887 19.7258 15.9664C19.7797 15.944 19.8287 15.9113 19.87 15.87C19.9113 15.8287 19.944 15.7797 19.9664 15.7258C19.9887 15.6719 20.0002 15.6141 20.0002 15.5557C20.0002 15.4973 19.9887 15.4395 19.9664 15.3856C19.944 15.3317 19.9113 15.2827 19.87 15.2414L15.998 11.3694C16.7475 10.475 17.1574 9.34486 17.1557 8.17795C17.1557 5.42881 14.9271 3.2002 12.178 3.2002ZM8.08908 8.17795C8.08908 5.91983 9.91983 4.08908 12.178 4.08908C14.4361 4.08908 16.2668 5.91983 16.2668 8.17795C16.2668 10.4361 14.4361 12.2668 12.178 12.2668C9.91983 12.2668 8.08908 10.4361 8.08908 8.17795Z" fill="#232221"/>
<line id="Line 23" x1="5.59961" y1="6.72039" x2="1.59961" y2="6.72039" stroke="black" stroke-width="0.64"/>
<line id="Line 24" x1="5.59961" y1="9.1198" x2="-0.00039053" y2="9.1198" stroke="black" stroke-width="0.64"/>
<line id="Line 25" x1="5.59961" y1="11.5202" x2="0.799609" y2="11.5202" stroke="black" stroke-width="0.64"/>
</g>
<defs>
<clipPath id="clip0_400_3720">
<rect width="20" height="20" fill="white"/>
</clipPath>
</defs>
</svg>
