<svg width="23" height="21" viewBox="0 0 23 21" fill="none" xmlns="http://www.w3.org/2000/svg">
<g id="shopping cart">
<path id="Vector" d="M3.43049 5.08402H3.42878V5.10759L6.01883 14.1531C6.14753 14.5957 6.4158 14.9847 6.78365 15.2623C7.15145 15.5399 7.5991 15.6912 8.05988 15.6937C8.05994 15.6937 8.06 15.6937 8.06006 15.6937H17.4644C17.4645 15.6937 17.4645 15.6937 17.4646 15.6937C17.9254 15.6912 18.373 15.5399 18.7408 15.2623C19.1086 14.9848 19.3769 14.5957 19.5056 14.1533C19.5056 14.1532 19.5056 14.1532 19.5056 14.1531L22.0972 5.08278C22.0972 5.08268 22.0972 5.08257 22.0972 5.08247C22.1192 5.00181 22.1225 4.91719 22.1067 4.83509C22.0909 4.75288 22.0564 4.67539 22.006 4.6086L22.0059 4.60848C21.9549 4.54053 21.8888 4.48537 21.8128 4.44739C21.7369 4.4094 21.6531 4.38962 21.5682 4.38962H4.39806H4.36645L4.35778 4.35923L3.52335 1.43383C3.52335 1.4338 3.52334 1.43377 3.52333 1.43375C3.44299 1.15467 3.2743 0.909174 3.04259 0.734104C2.81088 0.559031 2.52864 0.463829 2.23822 0.462785H0.589026C0.443915 0.462785 0.304748 0.52043 0.20214 0.623038C0.0995312 0.725647 0.0418863 0.864814 0.0418863 1.00992C0.0418863 1.15503 0.0995312 1.2942 0.20214 1.39681C0.304748 1.49942 0.443915 1.55706 0.589026 1.55706H2.23785H2.2383V1.59895C2.28166 1.59798 2.324 1.61215 2.35805 1.63903C2.39209 1.6659 2.4157 1.7038 2.42482 1.74621L3.43049 5.08402ZM3.43049 5.08402L3.42715 5.07242L2.46545 1.73592L3.43049 5.08402ZM20.8329 5.53734L20.8482 5.4839H20.7926H4.73184H4.67625L4.69158 5.53734L7.07706 13.8522C7.07708 13.8522 7.07709 13.8523 7.0771 13.8523C7.13727 14.0668 7.26576 14.2558 7.44307 14.3906C7.62042 14.5255 7.83692 14.5988 8.05972 14.5994H8.05984H17.4646H17.4647C17.6875 14.5988 17.904 14.5255 18.0814 14.3906C18.2587 14.2558 18.3872 14.0668 18.4474 13.8523C18.4474 13.8522 18.4474 13.8522 18.4474 13.8522L20.8329 5.53734ZM8.98984 19.0734C8.98984 19.3369 8.91169 19.5946 8.76527 19.8137C8.61886 20.0328 8.41075 20.2036 8.16726 20.3045C7.92378 20.4053 7.65586 20.4317 7.39738 20.3803C7.13889 20.3289 6.90146 20.202 6.71511 20.0156C6.52876 19.8293 6.40185 19.5918 6.35043 19.3333C6.29902 19.0749 6.32541 18.8069 6.42626 18.5635C6.52711 18.32 6.6979 18.1119 6.91703 17.9654C7.13616 17.819 7.39379 17.7409 7.65734 17.7409C8.01074 17.7409 8.34967 17.8813 8.59956 18.1312C8.84945 18.3811 8.98984 18.72 8.98984 19.0734ZM17.1268 17.9654C17.3459 17.819 17.6036 17.7409 17.8671 17.7409C18.2205 17.7409 18.5594 17.8813 18.8093 18.1312C19.0592 18.3811 19.1996 18.72 19.1996 19.0734C19.1996 19.3369 19.1215 19.5946 18.9751 19.8137C18.8286 20.0328 18.6205 20.2036 18.377 20.3045C18.1336 20.4053 17.8656 20.4317 17.6072 20.3803C17.3487 20.3289 17.1112 20.202 16.9249 20.0156C16.7385 19.8293 16.6116 19.5918 16.5602 19.3333C16.5088 19.0749 16.5352 18.8069 16.636 18.5635C16.7369 18.32 16.9077 18.1119 17.1268 17.9654Z" fill="#232221" stroke="#FDFDFD" stroke-width="0.0837726"/>
</g>
</svg>
